<svg width="26" height="26" viewBox="0 0 26 26" fill="none" xmlns="http://www.w3.org/2000/svg">
<path d="M12.7451 7.31663C11.6714 7.31663 10.6219 7.635 9.7292 8.23149C8.8365 8.82798 8.14072 9.67579 7.72985 10.6677C7.31898 11.6596 7.21148 12.7511 7.42094 13.8041C7.6304 14.8572 8.14741 15.8244 8.90659 16.5836C9.66578 17.3428 10.633 17.8598 11.6861 18.0693C12.7391 18.2787 13.8306 18.1712 14.8225 17.7603C15.8144 17.3495 16.6622 16.6537 17.2587 15.761C17.8552 14.8683 18.1736 13.8187 18.1736 12.7451C18.1736 11.3054 17.6016 9.92463 16.5836 8.90659C15.5656 7.88856 14.1848 7.31663 12.7451 7.31663ZM12.7451 15.3413C12.2316 15.3413 11.7297 15.1891 11.3027 14.9038C10.8758 14.6185 10.543 14.213 10.3465 13.7386C10.15 13.2642 10.0986 12.7422 10.1988 12.2386C10.2989 11.735 10.5462 11.2724 10.9093 10.9093C11.2724 10.5462 11.735 10.2989 12.2386 10.1988C12.7422 10.0986 13.2642 10.15 13.7386 10.3465C14.213 10.543 14.6185 10.8758 14.9038 11.3027C15.1891 11.7297 15.3413 12.2316 15.3413 12.7451C15.3382 13.4327 15.0637 14.0913 14.5775 14.5775C14.0913 15.0637 13.4327 15.3382 12.7451 15.3413ZM18.4096 0H7.08061C5.20272 0 3.40173 0.745991 2.07386 2.07386C0.745991 3.40173 0 5.20272 0 7.08061V18.4096C0 20.2875 0.745991 22.0885 2.07386 23.4163C3.40173 24.7442 5.20272 25.4902 7.08061 25.4902H18.4096C20.2875 25.4902 22.0885 24.7442 23.4163 23.4163C24.7442 22.0885 25.4902 20.2875 25.4902 18.4096V7.08061C25.4902 5.20272 24.7442 3.40173 23.4163 2.07386C22.0885 0.745991 20.2875 0 18.4096 0ZM22.658 18.4096C22.658 19.5363 22.2104 20.6169 21.4136 21.4136C20.6169 22.2104 19.5363 22.658 18.4096 22.658H7.08061C5.95387 22.658 4.87328 22.2104 4.07656 21.4136C3.27984 20.6169 2.83224 19.5363 2.83224 18.4096V7.08061C2.83224 5.95387 3.27984 4.87328 4.07656 4.07656C4.87328 3.27984 5.95387 2.83224 7.08061 2.83224H18.4096C19.5363 2.83224 20.6169 3.27984 21.4136 4.07656C22.2104 4.87328 22.658 5.95387 22.658 7.08061V18.4096ZM20.7698 6.60857C20.7698 6.98201 20.6591 7.34707 20.4516 7.65758C20.2441 7.96808 19.9492 8.21009 19.6042 8.353C19.2592 8.49592 18.8795 8.53331 18.5133 8.46045C18.147 8.3876 17.8106 8.20777 17.5465 7.9437C17.2824 7.67964 17.1026 7.3432 17.0297 6.97693C16.9569 6.61066 16.9943 6.23102 17.1372 5.886C17.2801 5.54098 17.5221 5.24609 17.8326 5.03862C18.1431 4.83115 18.5082 4.72041 18.8816 4.72041C19.3824 4.72041 19.8627 4.91934 20.2168 5.27344C20.5709 5.62754 20.7698 6.1078 20.7698 6.60857Z" fill="white"/>
</svg>
