<svg width="25" height="25" viewBox="0 0 25 25" fill="none" xmlns="http://www.w3.org/2000/svg">
<path d="M22.3092 0.274414C23.0228 0.274414 23.7072 0.55789 24.2118 1.06248C24.7164 1.56707 24.9999 2.25145 24.9999 2.96505V21.7995C24.9999 22.5131 24.7164 23.1974 24.2118 23.702C23.7072 24.2066 23.0228 24.4901 22.3092 24.4901H3.47481C2.76121 24.4901 2.07684 24.2066 1.57225 23.702C1.06766 23.1974 0.78418 22.5131 0.78418 21.7995V2.96505C0.78418 2.25145 1.06766 1.56707 1.57225 1.06248C2.07684 0.55789 2.76121 0.274414 3.47481 0.274414H22.3092ZM21.6366 21.1268V13.9966C21.6366 12.8335 21.1745 11.7179 20.352 10.8955C19.5295 10.073 18.414 9.61091 17.2508 9.61091C16.1073 9.61091 14.7755 10.3105 14.1297 11.3598V9.86652H10.3763V21.1268H14.1297V14.4944C14.1297 13.4585 14.9638 12.611 15.9997 12.611C16.4992 12.611 16.9783 12.8094 17.3315 13.1626C17.6847 13.5158 17.8831 13.9949 17.8831 14.4944V21.1268H21.6366ZM6.00401 7.75437C6.60343 7.75437 7.1783 7.51625 7.60216 7.09239C8.02602 6.66854 8.26414 6.09366 8.26414 5.49424C8.26414 4.2431 7.25515 3.22066 6.00401 3.22066C5.40101 3.22066 4.82272 3.46019 4.39634 3.88657C3.96996 4.31295 3.73042 4.89125 3.73042 5.49424C3.73042 6.74538 4.75286 7.75437 6.00401 7.75437ZM7.874 21.1268V9.86652H4.14747V21.1268H7.874Z" fill="white"/>
</svg>
