<svg width="62" height="62" viewBox="0 0 62 62" fill="none" xmlns="http://www.w3.org/2000/svg">
<g clip-path="url(#clip0_125_227)">
<path d="M30.9999 52.7944L27.1623 48.9568L23.0347 53.0843L30.9999 61.0468L39.2121 52.8318L35.0845 48.707L30.9999 52.7944Z" fill="white"/>
<path d="M31.0002 0.953125L22.4551 9.49535L26.5827 13.6229L31.0002 9.20544L35.4177 13.6229L39.5424 9.49535L31.0002 0.953125Z" fill="white"/>
<path d="M31.0002 61.0184L22.4551 52.4762L26.5827 48.3486L31.0002 52.7661L35.4177 48.3486L39.5424 52.4762L31.0002 61.0184Z" fill="white"/>
<path d="M40.7077 10.6602L36.5801 14.7849L52.7804 30.9852L37.0824 46.6833L41.21 50.808L61.0356 30.9852L40.7077 10.6602Z" fill="white"/>
<path d="M25.417 14.7849L21.2894 10.6602L0.964355 30.9852L20.7871 50.808L24.9147 46.6833L9.21954 30.9852L25.417 14.7849Z" fill="white"/>
<path d="M36.5801 28.9131V38.4456H25.4172V28.9131H19.9233V49.9443L21.2896 51.3106L25.4172 47.1859V43.3166H36.5801V47.1859L40.7077 51.3106L42.074 49.9443V28.9131H36.5801Z" fill="white"/>
</g>
<defs>
<clipPath id="clip0_125_227">
<rect width="62" height="62" fill="white"/>
</clipPath>
</defs>
</svg>
