<svg width="204" height="48" viewBox="0 0 204 48" fill="none" xmlns="http://www.w3.org/2000/svg">
<path d="M149.23 14.5085C149.062 14.5425 148.926 14.6427 148.919 14.7178C148.913 14.7803 148.819 14.8342 148.719 14.8243C148.619 14.8144 148.54 14.7182 148.551 14.6057C148.57 14.4181 148.458 14.3944 147.6 14.3855C147.058 14.3824 143.572 14.1265 139.852 13.8096C133.651 13.2982 132.078 13.2439 132.656 13.5283C132.776 13.5907 132.854 13.6994 132.844 13.7995C132.831 13.9245 132.199 13.9378 130.011 13.8354C122.555 13.5031 112.047 13.3746 100.292 13.464C91.1681 13.5227 84.2199 13.67 82.0041 13.8553C78.7578 14.1156 78.0862 14.1377 76.1764 14.0375C73.6013 13.8968 72.7159 13.9104 66.5607 14.2118C65.3802 14.272 63.3318 14.297 62.0073 14.2799C56.3195 14.198 53.4934 14.4241 39.4736 16.0958C32.4312 16.941 27.5695 17.446 23.8805 17.7131C19.2237 18.0614 17.3931 18.31 14.0499 19.0407C10.9129 19.7286 6.94369 20.9153 4.15743 22.0167C3.32992 22.3392 3.23372 22.4181 3.2016 22.7433C3.16949 23.0685 3.07205 23.1599 2.38954 23.4208C1.95702 23.5802 1.31466 23.9462 0.93356 24.2243L0.265098 24.7266L0.434645 25.3116C0.694678 26.2593 0.707185 26.2605 1.79148 26.2792L2.76198 26.2993L2.70747 26.7233C2.66902 26.9847 2.7294 27.2685 2.86343 27.446C3.24174 27.9633 4.18213 27.9046 9.53244 27.0564C12.2395 26.6291 23.8981 24.9516 31.543 23.888C61.1874 19.7686 78.7269 18.5203 104.576 18.6863C117.779 18.7652 134.156 19.4356 150.175 20.5378C152.522 20.6938 155.207 20.8706 156.136 20.9245C159.174 21.1109 175.517 22.7755 178.769 23.223C180.512 23.471 182.568 23.7624 183.315 23.8615C184.075 23.9744 184.685 24.0599 184.684 24.0724C184.681 24.0974 185.077 24.187 186.974 24.5386C188.016 24.7299 190.275 25.0036 192.341 25.1824C194.958 25.4155 196.055 25.5618 196.457 25.7151C197.052 25.9507 199.275 26.2082 200.953 26.2224L202.026 26.2273L201.11 25.9095C200.61 25.7338 198.98 25.3581 197.48 25.071C195.993 24.7852 194.449 24.4307 194.047 24.2773C193.645 24.1365 193.302 24.0269 193.287 24.0507C192.966 24.6126 192.602 24.7156 192.587 24.2341C192.575 23.9677 192.514 23.9491 191.538 23.8527C190.312 23.7316 189.482 23.4475 188.706 22.8657L188.129 22.4424L188.633 22.4543C188.91 22.4565 189.643 22.5794 190.249 22.715C191.445 23.0099 192.868 23.1758 193.294 23.0789C193.513 23.0374 193.56 23.0799 193.54 23.28C193.503 23.6552 193.709 23.7387 194.1 23.4869C194.396 23.3014 194.639 23.2749 195.477 23.3577C196.152 23.4244 196.584 23.4038 196.77 23.3086C196.998 23.1795 197.06 23.1856 197.258 23.3567C197.513 23.584 198.51 23.7204 198.593 23.5264C198.626 23.4414 198.814 23.4599 199.193 23.5857C200.318 23.962 203.315 24.0434 203.35 23.6932C203.39 23.293 202.908 23.0559 201.643 22.8174C200.935 22.6969 200.076 22.4478 199.702 22.272C198.942 21.9065 198.57 21.8319 198.2 21.9974C198.004 22.0664 197.892 22.0553 197.765 21.9292C197.674 21.8317 197.426 21.782 197.16 21.7936C196.867 21.8152 196.658 21.7567 196.557 21.633C196.479 21.5243 196.371 21.4631 196.33 21.497C196.233 21.5884 194.602 21.4778 194.61 21.3903C194.625 21.2402 189.737 20.3532 188.693 20.3132C187.9 20.2854 187.653 20.2232 187.615 20.0932C187.56 19.8856 186.924 19.8101 186.054 19.9137C185.518 19.9744 185.195 19.9173 184.104 19.5822C183.136 19.2845 182.033 19.0745 179.851 18.7833C178.232 18.5601 175.343 18.1359 173.428 17.8331C171.513 17.5303 167.672 17.0373 164.885 16.7368C160.436 16.2595 159.751 16.1665 159.22 15.912C158.701 15.6713 158.117 15.5757 154.977 15.2656C151.427 14.9023 151.339 14.8937 151.377 15.15C151.417 15.3813 151.405 15.3801 151.093 15.0841C150.77 14.7743 150.106 14.595 150.232 14.8475C150.262 14.9262 150.191 15.0076 150.074 15.0465C149.944 15.0842 149.833 15.0481 149.816 14.9706C149.727 14.5955 149.504 14.4219 149.23 14.5085ZM187.727 22.4154C187.617 22.6319 187.032 22.5488 186.969 22.29C186.954 22.1875 187.084 22.1498 187.384 22.1795C187.734 22.214 187.806 22.259 187.727 22.4154Z" fill="#2E5CFE"/>
<path d="M131.496 13.3758C131.489 13.4509 131.624 13.4895 131.842 13.4605C132.342 13.3836 132.359 13.3348 131.909 13.2903C131.684 13.2681 131.502 13.3133 131.496 13.3758Z" fill="#2E5CFE"/>
<path d="M120.949 12.7509L120.497 12.8578L121.231 12.9682C122.089 13.1035 122.474 13.0405 122.204 12.837C121.981 12.6634 121.517 12.6302 120.949 12.7509Z" fill="#2E5CFE"/>
</svg>
