<svg width="23" height="23" viewBox="0 0 23 23" fill="none" xmlns="http://www.w3.org/2000/svg">
<g clip-path="url(#clip0_125_205)">
<path d="M11.4261 0.0820312C7.35242 0.0820312 4.03809 3.39636 4.03809 7.47002C4.03809 8.69294 4.34384 9.90546 4.92508 10.9809L11.0221 22.0079C11.1032 22.1549 11.2579 22.246 11.4261 22.246C11.5943 22.246 11.7489 22.1549 11.8301 22.0079L17.9293 10.9773C18.5083 9.90546 18.8141 8.69289 18.8141 7.46998C18.8141 3.39636 15.4997 0.0820312 11.4261 0.0820312ZM11.4261 11.164C9.38925 11.164 7.7321 9.50686 7.7321 7.47002C7.7321 5.43319 9.38925 3.77605 11.4261 3.77605C13.4629 3.77605 15.1201 5.43319 15.1201 7.47002C15.1201 9.50686 13.4629 11.164 11.4261 11.164Z" fill="white"/>
</g>
<defs>
<clipPath id="clip0_125_205">
<rect width="22.1639" height="22.1639" fill="white" transform="translate(0.344238 0.0820312)"/>
</clipPath>
</defs>
</svg>
