<svg width="48" height="36" viewBox="0 0 48 36" fill="none" xmlns="http://www.w3.org/2000/svg">
<path d="M0 9.99134V19.983H3.99666H7.99333V20.7424C7.99333 23.0005 6.41465 26.4776 4.39633 28.6358C3.27726 29.8148 1.23897 31.3335 0.319733 31.6333C0.199833 31.6732 0.519566 32.6324 1.0791 33.8115L2.0383 35.9297L3.85678 35.4301C11.7302 33.2719 17.1257 27.9963 19.224 20.4226C19.6236 18.9639 19.6636 18.3444 19.7235 9.43181L19.8035 -0.00031662H9.91173H0V9.99134Z" fill="#1E1E1E"/>
<path d="M28.1763 9.99134V19.983H32.073H35.9698V20.7424C35.9698 23.0005 34.3911 26.4776 32.3728 28.6358C31.2537 29.8148 29.2154 31.3335 28.2962 31.6333C28.1763 31.6732 28.496 32.6324 29.0555 33.8115L30.0147 35.9297L31.8332 35.4301C35.9698 34.2911 39.4269 32.3127 42.1046 29.515C44.4427 27.0771 45.7616 24.9189 46.7408 21.9813C47.72 18.9639 47.7999 18.1845 47.8998 8.83231L47.9997 -0.00031662H38.088H28.1763V9.99134Z" fill="#1E1E1E"/>
</svg>
