<svg width="41" height="36" viewBox="0 0 41 36" fill="none" xmlns="http://www.w3.org/2000/svg">
<mask id="path-1-outside-1_59_75" maskUnits="userSpaceOnUse" x="0" y="0.71875" width="41" height="36" fill="black">
<rect fill="white" y="0.71875" width="41" height="36"/>
<path d="M10.4435 1.59035C9.98853 1.89367 9.55522 2.32698 9.51189 2.5653C9.4469 2.78195 9.31691 2.97694 9.20858 2.97694C9.10025 2.97694 9.01359 3.17192 9.01359 3.38858C9.01359 3.6269 8.92693 3.86522 8.8186 3.93021C8.29863 4.25519 8.36363 8.84826 8.92693 11.2314C9.03525 11.7514 8.97026 11.8164 7.56201 12.2497C5.69879 12.8564 3.35892 14.1996 2.38398 15.2612C0.520759 17.2978 0.542424 19.551 2.42731 21.5008C3.46725 22.5841 5.74212 23.884 7.56201 24.469C8.97026 24.9023 9.03525 24.9673 8.92693 25.4873C8.36363 27.8271 8.29863 31.8352 8.77527 32.8535C9.40357 34.1534 9.70688 34.5651 10.4652 35.085C11.6568 35.93 13.6933 35.93 15.5782 35.085C16.8131 34.5217 19.8463 32.3769 20.0196 31.9652C20.1279 31.7269 20.8646 31.7486 20.9729 31.9869C21.1245 32.3985 24.1577 34.5001 25.4143 35.085C26.4976 35.5617 27.0825 35.6917 28.2308 35.6917C30.289 35.67 31.1556 35.0634 32.2172 32.8535C32.6939 31.8352 32.6289 27.8271 32.0656 25.4873C31.9572 24.9673 32.0222 24.9023 33.4305 24.469C34.2321 24.209 35.5753 23.6024 36.377 23.1257C40.2117 20.8942 41.0567 17.9477 38.6518 15.3045C37.6769 14.2429 35.2504 12.8347 33.4521 12.2714C32.0222 11.8164 31.9572 11.7514 32.0656 11.2314C32.6072 8.93492 32.6939 4.88349 32.1955 3.86522C31.6106 2.58696 31.2856 2.15365 30.5273 1.63368C29.3357 0.788734 27.2992 0.788734 25.4143 1.63368C24.1577 2.21865 21.1245 4.32019 20.9729 4.73183C20.8646 4.97015 20.1279 4.99182 20.0196 4.7535C19.8463 4.34186 16.8131 2.19698 15.5782 1.63368C13.7366 0.810398 11.7001 0.788734 10.4435 1.59035ZM15.3399 3.58357C15.9465 3.90855 17.0514 4.6885 17.8314 5.3168L19.218 6.46506L18.6114 7.15836C18.2864 7.54833 17.7231 8.24162 17.3548 8.71826C16.0765 10.3432 15.8382 10.5815 15.2966 10.6032C14.9932 10.6032 13.9316 10.7548 12.935 10.9065C11.9168 11.0798 11.0068 11.1231 10.9201 11.0365C10.4652 10.5815 10.1402 6.48673 10.4435 4.92682C10.5302 4.55851 10.9201 3.88688 11.3101 3.47524C12.0251 2.73862 12.0901 2.71695 13.1517 2.84694C13.7583 2.93361 14.7333 3.25859 15.3399 3.58357ZM29.704 3.49691C30.484 4.34186 30.679 5.01348 30.679 6.96337C30.679 8.17663 30.3107 10.9931 30.1373 11.1665C30.094 11.2098 29.2057 11.1015 28.1441 10.9281C27.1042 10.7548 25.9993 10.6032 25.6959 10.6032C25.1976 10.5815 24.916 10.3432 23.9627 9.12991C23.7894 8.89159 23.2694 8.26329 22.8361 7.69999C22.3811 7.15836 22.0128 6.59506 22.0128 6.48673C22.0128 6.14008 24.6343 4.10354 25.8043 3.51857C27.8625 2.52197 28.7724 2.52197 29.704 3.49691ZM21.4062 8.86992C21.7962 9.38989 22.1861 9.8232 22.2728 9.86653C22.3811 9.90986 22.4461 10.0399 22.4461 10.1482C22.4461 10.2565 21.5795 10.3432 20.4962 10.3432C19.4346 10.3432 18.5464 10.2565 18.5464 10.1482C18.5464 10.0399 18.6114 9.90986 18.7197 9.86653C18.8063 9.8232 19.1963 9.38989 19.5863 8.86992C19.9979 8.37162 20.3879 7.95998 20.4962 7.95998C20.6046 7.95998 20.9945 8.37162 21.4062 8.86992ZM23.7027 12.2931C24.006 12.2931 25.4576 14.5029 26.6492 16.7778L27.4725 18.3594L26.6492 19.9193C25.306 22.5191 24.006 24.4257 23.5944 24.4257C23.3777 24.4473 21.8395 24.4473 20.1713 24.4473H17.1381L16.5531 23.7324C16.2282 23.3424 15.9465 22.9308 15.9465 22.8441C15.9465 22.7358 15.7515 22.3891 15.5132 22.0425C15.2749 21.7175 14.7333 20.7426 14.2999 19.8976L13.52 18.3377L14.3216 16.7778C14.7766 15.9328 15.3182 14.9579 15.5565 14.6329C15.7732 14.3296 15.9465 14.0046 15.9465 13.9396C15.9465 13.6363 16.9431 12.4447 17.2898 12.3147C17.5714 12.2064 20.1063 12.2064 23.7027 12.2931ZM13.6067 14.2646C12.7184 15.8462 12.5884 15.9762 12.3284 15.6295C12.1767 15.4129 12.0467 15.0879 12.0467 14.8929C12.0467 14.6979 11.9601 14.4596 11.8518 14.3296C11.7434 14.2213 11.6134 13.8963 11.5701 13.6146C11.5051 13.1163 11.6134 13.0513 12.6967 12.8347C14.7333 12.3797 14.6899 12.3364 13.6067 14.2646ZM28.1875 12.813C29.379 13.073 29.4874 13.138 29.4224 13.6146C29.379 13.8963 29.2491 14.2213 29.1407 14.3513C29.0324 14.4596 28.9457 14.6979 28.9457 14.8929C28.9457 15.0879 28.8158 15.4129 28.6641 15.6295C28.4041 15.9762 28.2741 15.8462 27.3858 14.2646C26.8442 13.2897 26.4976 12.5097 26.6492 12.5314C26.7792 12.5314 27.4725 12.6614 28.1875 12.813ZM9.88021 14.4813C10.0319 14.9796 10.4218 16.0195 10.7685 16.7778C11.1151 17.5361 11.3968 18.251 11.3968 18.3594C11.3968 18.4677 11.1151 19.1826 10.7685 19.9409C10.4218 20.6992 10.0319 21.7392 9.88021 22.2375C9.75021 22.7141 9.62022 23.1257 9.57689 23.1257C9.10025 23.1257 6.15376 21.9125 5.26548 21.3708C1.92901 19.2476 2.01567 17.2978 5.5038 15.2612C6.6304 14.5896 8.8836 13.6796 9.49023 13.6146C9.57689 13.593 9.75021 14.0046 9.88021 14.4813ZM32.2172 13.8313C33.6688 14.2863 34.8604 14.8279 35.987 15.5429C37.0053 16.1712 37.1786 16.3445 37.6769 17.0594C38.3269 18.0127 38.0885 19.3993 37.0703 20.4392C36.702 20.8292 34.1454 22.2591 33.8205 22.2591C33.6471 22.2591 33.4738 22.3458 33.4088 22.4541C33.3438 22.5408 33.0188 22.6924 32.6939 22.7574C32.3472 22.8224 31.9139 22.9524 31.7189 23.0174C31.4373 23.1257 31.3073 22.9741 31.1123 22.2375C30.9823 21.7392 30.5706 20.6992 30.224 19.9409C29.8774 19.1826 29.5957 18.4677 29.5957 18.3594C29.5957 18.251 29.8774 17.5361 30.224 16.7778C30.5706 16.0195 30.9606 14.9796 31.1123 14.4813C31.2423 14.0046 31.3723 13.593 31.4156 13.593C31.4589 13.593 31.8056 13.7013 32.2172 13.8313ZM13.6716 22.5624C14.1916 23.4724 14.4949 24.209 14.3649 24.209C14.2133 24.1873 13.52 24.0574 12.805 23.9057C11.4401 23.624 11.3535 23.4941 11.8084 22.3675C11.9168 22.1291 12.1117 21.6525 12.2417 21.3059C12.3934 20.9592 12.545 20.7426 12.61 20.8075C12.675 20.8725 13.1517 21.6525 13.6716 22.5624ZM28.9457 21.8258C28.9457 22.0208 29.0324 22.2591 29.1407 22.3675C29.2274 22.4974 29.379 22.8441 29.4657 23.1474C29.574 23.689 29.5307 23.7324 28.5558 23.8624C27.9925 23.9274 27.2775 24.0574 26.9525 24.1224L26.3676 24.2523L27.3642 22.4758C28.2741 20.8725 28.4041 20.7426 28.6641 21.0892C28.8158 21.3059 28.9457 21.6308 28.9457 21.8258ZM13.975 25.9639C15.9032 26.2456 16.0115 26.2889 16.5748 27.0255C16.8781 27.4372 17.1814 27.8271 17.2464 27.8921C17.3114 27.9571 17.7881 28.4988 18.2864 29.1271L19.218 30.2537L17.7881 31.4236C15.9898 32.9185 14.4949 33.6985 13.13 33.8718C12.0901 34.0018 12.0034 33.9801 11.3101 33.2218C10.4002 32.2685 10.2052 31.2286 10.3785 28.5421C10.5518 26.0939 10.8118 25.4223 11.4618 25.5739C11.7218 25.6389 12.8484 25.8123 13.975 25.9639ZM30.3973 26.5272C30.484 27.1122 30.5706 28.5421 30.5706 29.7554C30.5706 31.5102 30.484 32.0952 30.1373 32.7235C29.639 33.6551 28.7941 34.0668 27.7108 33.8934C26.8659 33.7418 24.8727 32.8102 24.2444 32.2469C24.0277 32.0519 23.3777 31.5319 22.8144 31.0769L21.7962 30.2537L22.7061 29.1271C23.2261 28.4988 23.6811 27.9571 23.746 27.8921C23.811 27.8271 24.1144 27.4372 24.4393 27.0038C24.9376 26.3322 25.176 26.2022 26.1726 26.0722C26.8009 25.9856 27.8191 25.8339 28.4041 25.7473C30.2673 25.4439 30.2023 25.4223 30.3973 26.5272ZM22.4461 26.4839C22.4461 26.5922 22.1428 26.9822 21.0595 28.2171L20.4962 28.8671L19.9329 28.2171C18.8497 26.9822 18.5464 26.5922 18.5464 26.4839C18.5464 26.4189 19.4346 26.3756 20.4962 26.3756C21.5795 26.3756 22.4461 26.4189 22.4461 26.4839Z"/>
</mask>
<path d="M10.4435 1.59035C9.98853 1.89367 9.55522 2.32698 9.51189 2.5653C9.4469 2.78195 9.31691 2.97694 9.20858 2.97694C9.10025 2.97694 9.01359 3.17192 9.01359 3.38858C9.01359 3.6269 8.92693 3.86522 8.8186 3.93021C8.29863 4.25519 8.36363 8.84826 8.92693 11.2314C9.03525 11.7514 8.97026 11.8164 7.56201 12.2497C5.69879 12.8564 3.35892 14.1996 2.38398 15.2612C0.520759 17.2978 0.542424 19.551 2.42731 21.5008C3.46725 22.5841 5.74212 23.884 7.56201 24.469C8.97026 24.9023 9.03525 24.9673 8.92693 25.4873C8.36363 27.8271 8.29863 31.8352 8.77527 32.8535C9.40357 34.1534 9.70688 34.5651 10.4652 35.085C11.6568 35.93 13.6933 35.93 15.5782 35.085C16.8131 34.5217 19.8463 32.3769 20.0196 31.9652C20.1279 31.7269 20.8646 31.7486 20.9729 31.9869C21.1245 32.3985 24.1577 34.5001 25.4143 35.085C26.4976 35.5617 27.0825 35.6917 28.2308 35.6917C30.289 35.67 31.1556 35.0634 32.2172 32.8535C32.6939 31.8352 32.6289 27.8271 32.0656 25.4873C31.9572 24.9673 32.0222 24.9023 33.4305 24.469C34.2321 24.209 35.5753 23.6024 36.377 23.1257C40.2117 20.8942 41.0567 17.9477 38.6518 15.3045C37.6769 14.2429 35.2504 12.8347 33.4521 12.2714C32.0222 11.8164 31.9572 11.7514 32.0656 11.2314C32.6072 8.93492 32.6939 4.88349 32.1955 3.86522C31.6106 2.58696 31.2856 2.15365 30.5273 1.63368C29.3357 0.788734 27.2992 0.788734 25.4143 1.63368C24.1577 2.21865 21.1245 4.32019 20.9729 4.73183C20.8646 4.97015 20.1279 4.99182 20.0196 4.7535C19.8463 4.34186 16.8131 2.19698 15.5782 1.63368C13.7366 0.810398 11.7001 0.788734 10.4435 1.59035ZM15.3399 3.58357C15.9465 3.90855 17.0514 4.6885 17.8314 5.3168L19.218 6.46506L18.6114 7.15836C18.2864 7.54833 17.7231 8.24162 17.3548 8.71826C16.0765 10.3432 15.8382 10.5815 15.2966 10.6032C14.9932 10.6032 13.9316 10.7548 12.935 10.9065C11.9168 11.0798 11.0068 11.1231 10.9201 11.0365C10.4652 10.5815 10.1402 6.48673 10.4435 4.92682C10.5302 4.55851 10.9201 3.88688 11.3101 3.47524C12.0251 2.73862 12.0901 2.71695 13.1517 2.84694C13.7583 2.93361 14.7333 3.25859 15.3399 3.58357ZM29.704 3.49691C30.484 4.34186 30.679 5.01348 30.679 6.96337C30.679 8.17663 30.3107 10.9931 30.1373 11.1665C30.094 11.2098 29.2057 11.1015 28.1441 10.9281C27.1042 10.7548 25.9993 10.6032 25.6959 10.6032C25.1976 10.5815 24.916 10.3432 23.9627 9.12991C23.7894 8.89159 23.2694 8.26329 22.8361 7.69999C22.3811 7.15836 22.0128 6.59506 22.0128 6.48673C22.0128 6.14008 24.6343 4.10354 25.8043 3.51857C27.8625 2.52197 28.7724 2.52197 29.704 3.49691ZM21.4062 8.86992C21.7962 9.38989 22.1861 9.8232 22.2728 9.86653C22.3811 9.90986 22.4461 10.0399 22.4461 10.1482C22.4461 10.2565 21.5795 10.3432 20.4962 10.3432C19.4346 10.3432 18.5464 10.2565 18.5464 10.1482C18.5464 10.0399 18.6114 9.90986 18.7197 9.86653C18.8063 9.8232 19.1963 9.38989 19.5863 8.86992C19.9979 8.37162 20.3879 7.95998 20.4962 7.95998C20.6046 7.95998 20.9945 8.37162 21.4062 8.86992ZM23.7027 12.2931C24.006 12.2931 25.4576 14.5029 26.6492 16.7778L27.4725 18.3594L26.6492 19.9193C25.306 22.5191 24.006 24.4257 23.5944 24.4257C23.3777 24.4473 21.8395 24.4473 20.1713 24.4473H17.1381L16.5531 23.7324C16.2282 23.3424 15.9465 22.9308 15.9465 22.8441C15.9465 22.7358 15.7515 22.3891 15.5132 22.0425C15.2749 21.7175 14.7333 20.7426 14.2999 19.8976L13.52 18.3377L14.3216 16.7778C14.7766 15.9328 15.3182 14.9579 15.5565 14.6329C15.7732 14.3296 15.9465 14.0046 15.9465 13.9396C15.9465 13.6363 16.9431 12.4447 17.2898 12.3147C17.5714 12.2064 20.1063 12.2064 23.7027 12.2931ZM13.6067 14.2646C12.7184 15.8462 12.5884 15.9762 12.3284 15.6295C12.1767 15.4129 12.0467 15.0879 12.0467 14.8929C12.0467 14.6979 11.9601 14.4596 11.8518 14.3296C11.7434 14.2213 11.6134 13.8963 11.5701 13.6146C11.5051 13.1163 11.6134 13.0513 12.6967 12.8347C14.7333 12.3797 14.6899 12.3364 13.6067 14.2646ZM28.1875 12.813C29.379 13.073 29.4874 13.138 29.4224 13.6146C29.379 13.8963 29.2491 14.2213 29.1407 14.3513C29.0324 14.4596 28.9457 14.6979 28.9457 14.8929C28.9457 15.0879 28.8158 15.4129 28.6641 15.6295C28.4041 15.9762 28.2741 15.8462 27.3858 14.2646C26.8442 13.2897 26.4976 12.5097 26.6492 12.5314C26.7792 12.5314 27.4725 12.6614 28.1875 12.813ZM9.88021 14.4813C10.0319 14.9796 10.4218 16.0195 10.7685 16.7778C11.1151 17.5361 11.3968 18.251 11.3968 18.3594C11.3968 18.4677 11.1151 19.1826 10.7685 19.9409C10.4218 20.6992 10.0319 21.7392 9.88021 22.2375C9.75021 22.7141 9.62022 23.1257 9.57689 23.1257C9.10025 23.1257 6.15376 21.9125 5.26548 21.3708C1.92901 19.2476 2.01567 17.2978 5.5038 15.2612C6.6304 14.5896 8.8836 13.6796 9.49023 13.6146C9.57689 13.593 9.75021 14.0046 9.88021 14.4813ZM32.2172 13.8313C33.6688 14.2863 34.8604 14.8279 35.987 15.5429C37.0053 16.1712 37.1786 16.3445 37.6769 17.0594C38.3269 18.0127 38.0885 19.3993 37.0703 20.4392C36.702 20.8292 34.1454 22.2591 33.8205 22.2591C33.6471 22.2591 33.4738 22.3458 33.4088 22.4541C33.3438 22.5408 33.0188 22.6924 32.6939 22.7574C32.3472 22.8224 31.9139 22.9524 31.7189 23.0174C31.4373 23.1257 31.3073 22.9741 31.1123 22.2375C30.9823 21.7392 30.5706 20.6992 30.224 19.9409C29.8774 19.1826 29.5957 18.4677 29.5957 18.3594C29.5957 18.251 29.8774 17.5361 30.224 16.7778C30.5706 16.0195 30.9606 14.9796 31.1123 14.4813C31.2423 14.0046 31.3723 13.593 31.4156 13.593C31.4589 13.593 31.8056 13.7013 32.2172 13.8313ZM13.6716 22.5624C14.1916 23.4724 14.4949 24.209 14.3649 24.209C14.2133 24.1873 13.52 24.0574 12.805 23.9057C11.4401 23.624 11.3535 23.4941 11.8084 22.3675C11.9168 22.1291 12.1117 21.6525 12.2417 21.3059C12.3934 20.9592 12.545 20.7426 12.61 20.8075C12.675 20.8725 13.1517 21.6525 13.6716 22.5624ZM28.9457 21.8258C28.9457 22.0208 29.0324 22.2591 29.1407 22.3675C29.2274 22.4974 29.379 22.8441 29.4657 23.1474C29.574 23.689 29.5307 23.7324 28.5558 23.8624C27.9925 23.9274 27.2775 24.0574 26.9525 24.1224L26.3676 24.2523L27.3642 22.4758C28.2741 20.8725 28.4041 20.7426 28.6641 21.0892C28.8158 21.3059 28.9457 21.6308 28.9457 21.8258ZM13.975 25.9639C15.9032 26.2456 16.0115 26.2889 16.5748 27.0255C16.8781 27.4372 17.1814 27.8271 17.2464 27.8921C17.3114 27.9571 17.7881 28.4988 18.2864 29.1271L19.218 30.2537L17.7881 31.4236C15.9898 32.9185 14.4949 33.6985 13.13 33.8718C12.0901 34.0018 12.0034 33.9801 11.3101 33.2218C10.4002 32.2685 10.2052 31.2286 10.3785 28.5421C10.5518 26.0939 10.8118 25.4223 11.4618 25.5739C11.7218 25.6389 12.8484 25.8123 13.975 25.9639ZM30.3973 26.5272C30.484 27.1122 30.5706 28.5421 30.5706 29.7554C30.5706 31.5102 30.484 32.0952 30.1373 32.7235C29.639 33.6551 28.7941 34.0668 27.7108 33.8934C26.8659 33.7418 24.8727 32.8102 24.2444 32.2469C24.0277 32.0519 23.3777 31.5319 22.8144 31.0769L21.7962 30.2537L22.7061 29.1271C23.2261 28.4988 23.6811 27.9571 23.746 27.8921C23.811 27.8271 24.1144 27.4372 24.4393 27.0038C24.9376 26.3322 25.176 26.2022 26.1726 26.0722C26.8009 25.9856 27.8191 25.8339 28.4041 25.7473C30.2673 25.4439 30.2023 25.4223 30.3973 26.5272ZM22.4461 26.4839C22.4461 26.5922 22.1428 26.9822 21.0595 28.2171L20.4962 28.8671L19.9329 28.2171C18.8497 26.9822 18.5464 26.5922 18.5464 26.4839C18.5464 26.4189 19.4346 26.3756 20.4962 26.3756C21.5795 26.3756 22.4461 26.4189 22.4461 26.4839Z" fill="#2E5CFE"/>
<path d="M10.4435 1.59035C9.98853 1.89367 9.55522 2.32698 9.51189 2.5653C9.4469 2.78195 9.31691 2.97694 9.20858 2.97694C9.10025 2.97694 9.01359 3.17192 9.01359 3.38858C9.01359 3.6269 8.92693 3.86522 8.8186 3.93021C8.29863 4.25519 8.36363 8.84826 8.92693 11.2314C9.03525 11.7514 8.97026 11.8164 7.56201 12.2497C5.69879 12.8564 3.35892 14.1996 2.38398 15.2612C0.520759 17.2978 0.542424 19.551 2.42731 21.5008C3.46725 22.5841 5.74212 23.884 7.56201 24.469C8.97026 24.9023 9.03525 24.9673 8.92693 25.4873C8.36363 27.8271 8.29863 31.8352 8.77527 32.8535C9.40357 34.1534 9.70688 34.5651 10.4652 35.085C11.6568 35.93 13.6933 35.93 15.5782 35.085C16.8131 34.5217 19.8463 32.3769 20.0196 31.9652C20.1279 31.7269 20.8646 31.7486 20.9729 31.9869C21.1245 32.3985 24.1577 34.5001 25.4143 35.085C26.4976 35.5617 27.0825 35.6917 28.2308 35.6917C30.289 35.67 31.1556 35.0634 32.2172 32.8535C32.6939 31.8352 32.6289 27.8271 32.0656 25.4873C31.9572 24.9673 32.0222 24.9023 33.4305 24.469C34.2321 24.209 35.5753 23.6024 36.377 23.1257C40.2117 20.8942 41.0567 17.9477 38.6518 15.3045C37.6769 14.2429 35.2504 12.8347 33.4521 12.2714C32.0222 11.8164 31.9572 11.7514 32.0656 11.2314C32.6072 8.93492 32.6939 4.88349 32.1955 3.86522C31.6106 2.58696 31.2856 2.15365 30.5273 1.63368C29.3357 0.788734 27.2992 0.788734 25.4143 1.63368C24.1577 2.21865 21.1245 4.32019 20.9729 4.73183C20.8646 4.97015 20.1279 4.99182 20.0196 4.7535C19.8463 4.34186 16.8131 2.19698 15.5782 1.63368C13.7366 0.810398 11.7001 0.788734 10.4435 1.59035ZM15.3399 3.58357C15.9465 3.90855 17.0514 4.6885 17.8314 5.3168L19.218 6.46506L18.6114 7.15836C18.2864 7.54833 17.7231 8.24162 17.3548 8.71826C16.0765 10.3432 15.8382 10.5815 15.2966 10.6032C14.9932 10.6032 13.9316 10.7548 12.935 10.9065C11.9168 11.0798 11.0068 11.1231 10.9201 11.0365C10.4652 10.5815 10.1402 6.48673 10.4435 4.92682C10.5302 4.55851 10.9201 3.88688 11.3101 3.47524C12.0251 2.73862 12.0901 2.71695 13.1517 2.84694C13.7583 2.93361 14.7333 3.25859 15.3399 3.58357ZM29.704 3.49691C30.484 4.34186 30.679 5.01348 30.679 6.96337C30.679 8.17663 30.3107 10.9931 30.1373 11.1665C30.094 11.2098 29.2057 11.1015 28.1441 10.9281C27.1042 10.7548 25.9993 10.6032 25.6959 10.6032C25.1976 10.5815 24.916 10.3432 23.9627 9.12991C23.7894 8.89159 23.2694 8.26329 22.8361 7.69999C22.3811 7.15836 22.0128 6.59506 22.0128 6.48673C22.0128 6.14008 24.6343 4.10354 25.8043 3.51857C27.8625 2.52197 28.7724 2.52197 29.704 3.49691ZM21.4062 8.86992C21.7962 9.38989 22.1861 9.8232 22.2728 9.86653C22.3811 9.90986 22.4461 10.0399 22.4461 10.1482C22.4461 10.2565 21.5795 10.3432 20.4962 10.3432C19.4346 10.3432 18.5464 10.2565 18.5464 10.1482C18.5464 10.0399 18.6114 9.90986 18.7197 9.86653C18.8063 9.8232 19.1963 9.38989 19.5863 8.86992C19.9979 8.37162 20.3879 7.95998 20.4962 7.95998C20.6046 7.95998 20.9945 8.37162 21.4062 8.86992ZM23.7027 12.2931C24.006 12.2931 25.4576 14.5029 26.6492 16.7778L27.4725 18.3594L26.6492 19.9193C25.306 22.5191 24.006 24.4257 23.5944 24.4257C23.3777 24.4473 21.8395 24.4473 20.1713 24.4473H17.1381L16.5531 23.7324C16.2282 23.3424 15.9465 22.9308 15.9465 22.8441C15.9465 22.7358 15.7515 22.3891 15.5132 22.0425C15.2749 21.7175 14.7333 20.7426 14.2999 19.8976L13.52 18.3377L14.3216 16.7778C14.7766 15.9328 15.3182 14.9579 15.5565 14.6329C15.7732 14.3296 15.9465 14.0046 15.9465 13.9396C15.9465 13.6363 16.9431 12.4447 17.2898 12.3147C17.5714 12.2064 20.1063 12.2064 23.7027 12.2931ZM13.6067 14.2646C12.7184 15.8462 12.5884 15.9762 12.3284 15.6295C12.1767 15.4129 12.0467 15.0879 12.0467 14.8929C12.0467 14.6979 11.9601 14.4596 11.8518 14.3296C11.7434 14.2213 11.6134 13.8963 11.5701 13.6146C11.5051 13.1163 11.6134 13.0513 12.6967 12.8347C14.7333 12.3797 14.6899 12.3364 13.6067 14.2646ZM28.1875 12.813C29.379 13.073 29.4874 13.138 29.4224 13.6146C29.379 13.8963 29.2491 14.2213 29.1407 14.3513C29.0324 14.4596 28.9457 14.6979 28.9457 14.8929C28.9457 15.0879 28.8158 15.4129 28.6641 15.6295C28.4041 15.9762 28.2741 15.8462 27.3858 14.2646C26.8442 13.2897 26.4976 12.5097 26.6492 12.5314C26.7792 12.5314 27.4725 12.6614 28.1875 12.813ZM9.88021 14.4813C10.0319 14.9796 10.4218 16.0195 10.7685 16.7778C11.1151 17.5361 11.3968 18.251 11.3968 18.3594C11.3968 18.4677 11.1151 19.1826 10.7685 19.9409C10.4218 20.6992 10.0319 21.7392 9.88021 22.2375C9.75021 22.7141 9.62022 23.1257 9.57689 23.1257C9.10025 23.1257 6.15376 21.9125 5.26548 21.3708C1.92901 19.2476 2.01567 17.2978 5.5038 15.2612C6.6304 14.5896 8.8836 13.6796 9.49023 13.6146C9.57689 13.593 9.75021 14.0046 9.88021 14.4813ZM32.2172 13.8313C33.6688 14.2863 34.8604 14.8279 35.987 15.5429C37.0053 16.1712 37.1786 16.3445 37.6769 17.0594C38.3269 18.0127 38.0885 19.3993 37.0703 20.4392C36.702 20.8292 34.1454 22.2591 33.8205 22.2591C33.6471 22.2591 33.4738 22.3458 33.4088 22.4541C33.3438 22.5408 33.0188 22.6924 32.6939 22.7574C32.3472 22.8224 31.9139 22.9524 31.7189 23.0174C31.4373 23.1257 31.3073 22.9741 31.1123 22.2375C30.9823 21.7392 30.5706 20.6992 30.224 19.9409C29.8774 19.1826 29.5957 18.4677 29.5957 18.3594C29.5957 18.251 29.8774 17.5361 30.224 16.7778C30.5706 16.0195 30.9606 14.9796 31.1123 14.4813C31.2423 14.0046 31.3723 13.593 31.4156 13.593C31.4589 13.593 31.8056 13.7013 32.2172 13.8313ZM13.6716 22.5624C14.1916 23.4724 14.4949 24.209 14.3649 24.209C14.2133 24.1873 13.52 24.0574 12.805 23.9057C11.4401 23.624 11.3535 23.4941 11.8084 22.3675C11.9168 22.1291 12.1117 21.6525 12.2417 21.3059C12.3934 20.9592 12.545 20.7426 12.61 20.8075C12.675 20.8725 13.1517 21.6525 13.6716 22.5624ZM28.9457 21.8258C28.9457 22.0208 29.0324 22.2591 29.1407 22.3675C29.2274 22.4974 29.379 22.8441 29.4657 23.1474C29.574 23.689 29.5307 23.7324 28.5558 23.8624C27.9925 23.9274 27.2775 24.0574 26.9525 24.1224L26.3676 24.2523L27.3642 22.4758C28.2741 20.8725 28.4041 20.7426 28.6641 21.0892C28.8158 21.3059 28.9457 21.6308 28.9457 21.8258ZM13.975 25.9639C15.9032 26.2456 16.0115 26.2889 16.5748 27.0255C16.8781 27.4372 17.1814 27.8271 17.2464 27.8921C17.3114 27.9571 17.7881 28.4988 18.2864 29.1271L19.218 30.2537L17.7881 31.4236C15.9898 32.9185 14.4949 33.6985 13.13 33.8718C12.0901 34.0018 12.0034 33.9801 11.3101 33.2218C10.4002 32.2685 10.2052 31.2286 10.3785 28.5421C10.5518 26.0939 10.8118 25.4223 11.4618 25.5739C11.7218 25.6389 12.8484 25.8123 13.975 25.9639ZM30.3973 26.5272C30.484 27.1122 30.5706 28.5421 30.5706 29.7554C30.5706 31.5102 30.484 32.0952 30.1373 32.7235C29.639 33.6551 28.7941 34.0668 27.7108 33.8934C26.8659 33.7418 24.8727 32.8102 24.2444 32.2469C24.0277 32.0519 23.3777 31.5319 22.8144 31.0769L21.7962 30.2537L22.7061 29.1271C23.2261 28.4988 23.6811 27.9571 23.746 27.8921C23.811 27.8271 24.1144 27.4372 24.4393 27.0038C24.9376 26.3322 25.176 26.2022 26.1726 26.0722C26.8009 25.9856 27.8191 25.8339 28.4041 25.7473C30.2673 25.4439 30.2023 25.4223 30.3973 26.5272ZM22.4461 26.4839C22.4461 26.5922 22.1428 26.9822 21.0595 28.2171L20.4962 28.8671L19.9329 28.2171C18.8497 26.9822 18.5464 26.5922 18.5464 26.4839C18.5464 26.4189 19.4346 26.3756 20.4962 26.3756C21.5795 26.3756 22.4461 26.4189 22.4461 26.4839Z" stroke="#2E5CFE" stroke-width="0.4" mask="url(#path-1-outside-1_59_75)"/>
<path d="M23.195 15.848L23.195 15.848L23.1959 15.8491C25.2128 18.3757 23.6676 21.9262 20.5396 21.9262C19.845 21.9262 19.2488 21.7993 18.7413 21.5358C18.2333 21.272 17.8199 20.8741 17.4868 20.3411C16.9505 19.4919 16.83 18.4187 17.0459 17.4523C17.2618 16.4865 17.8174 15.6127 18.6512 15.1732C19.3263 14.8132 20.2545 14.7328 21.1097 14.8621C21.9629 14.991 22.7716 15.333 23.195 15.848Z" fill="#2E5CFE" stroke="#2E5CFE" stroke-width="0.2"/>
</svg>
